<svg id="Capa_1" enable-background="new 0 0 512 512" height="512" viewBox="0 0 512 512" width="512" xmlns="http://www.w3.org/2000/svg" xmlns:xlink="http://www.w3.org/1999/xlink"><linearGradient id="SVGID_1_" gradientUnits="userSpaceOnUse" x1="74.981" x2="437.02" y1="437.019" y2="74.98"><stop offset="0" stop-color="#0072ff"/><stop offset=".2462" stop-color="#279cf6"/><stop offset=".5952" stop-color="#5ad1ea"/><stop offset=".8572" stop-color="#79f2e3"/><stop offset="1" stop-color="#85ffe0"/></linearGradient><radialGradient id="SVGID_2_" cx="256" cy="256" gradientTransform="matrix(.707 .707 -1.307 1.307 409.517 -259.556)" gradientUnits="userSpaceOnUse" r="272.673"><stop offset="0" stop-color="#0056e0"/><stop offset=".0305" stop-color="#005fdc" stop-opacity=".97"/><stop offset=".1809" stop-color="#0088ca" stop-opacity=".819"/><stop offset=".3353" stop-color="#0ab" stop-opacity=".665"/><stop offset=".4922" stop-color="#00c4af" stop-opacity=".508"/><stop offset=".6526" stop-color="#00d7a7" stop-opacity=".347"/><stop offset=".8189" stop-color="#00e2a2" stop-opacity=".181"/><stop offset="1" stop-color="#00e5a1" stop-opacity="0"/></radialGradient><linearGradient id="SVGID_3_" gradientTransform="matrix(-.707 -.707 -.707 .707 618.04 256)" gradientUnits="userSpaceOnUse" x1="165.277" x2="465.392" y1="167.905" y2="-132.211"><stop offset="0" stop-color="#0056e0"/><stop offset=".074" stop-color="#0062db"/><stop offset=".5182" stop-color="#00a9bb"/><stop offset=".8382" stop-color="#00d5a8"/><stop offset="1" stop-color="#00e5a1"/></linearGradient><linearGradient id="SVGID_4_" gradientTransform="matrix(-.707 -.707 -.707 .707 618.04 256)" gradientUnits="userSpaceOnUse" x1="394.046" x2="189.235" y1="-26.876" y2="177.935"><stop offset="0" stop-color="#00e5a1"/><stop offset=".1618" stop-color="#00d5a8"/><stop offset=".4818" stop-color="#00a9bb"/><stop offset=".926" stop-color="#0062db"/><stop offset="1" stop-color="#0056e0"/></linearGradient><linearGradient id="SVGID_5_" gradientTransform="matrix(.707 .707 .707 -.707 -8031.281 4762.744)" gradientUnits="userSpaceOnUse" x1="2711.681" x2="2578.24" y1="9138.028" y2="9271.471"><stop offset="0" stop-color="#85ffe0"/><stop offset=".5562" stop-color="#cbfff2"/><stop offset="1" stop-color="#fff"/></linearGradient><linearGradient id="SVGID_6_" gradientTransform="matrix(.707 .707 .707 -.707 -8031.281 4762.744)" gradientUnits="userSpaceOnUse" x1="2758.27" x2="2540.277" y1="9061.308" y2="9279.301"><stop offset="0" stop-color="#85ffe0"/><stop offset=".0266" stop-color="#89ffe1"/><stop offset=".3477" stop-color="#bcffee"/><stop offset=".6285" stop-color="#e0fff7"/><stop offset=".8554" stop-color="#f7fffd"/><stop offset="1" stop-color="#fff"/></linearGradient><linearGradient id="lg1"><stop offset="0" stop-color="#009ed8"/><stop offset="1" stop-color="#d4f4f4"/></linearGradient><linearGradient id="SVGID_7_" gradientTransform="matrix(0 -1 -1 0 512.001 512)" gradientUnits="userSpaceOnUse" x1="98.127" x2="410.022" xlink:href="#lg1" y1="244.678" y2="244.678"/><linearGradient id="SVGID_8_" gradientTransform="matrix(-.707 -.707 -.707 .707 618.04 256)" gradientUnits="userSpaceOnUse" x1="100.727" x2="359.235" xlink:href="#lg1" y1="430.82" y2="172.312"/><linearGradient id="SVGID_9_" gradientTransform="matrix(.707 .707 -.707 .707 256 -106.039)" gradientUnits="userSpaceOnUse" x1="286.331" x2="174.06" y1="478.848" y2="366.577"><stop offset="0" stop-color="#0056e0"/><stop offset=".1752" stop-color="#0069d7"/><stop offset=".5318" stop-color="#009bc1"/><stop offset="1" stop-color="#00e5a1"/></linearGradient><linearGradient id="SVGID_10_" gradientTransform="matrix(.707 .707 -.707 .707 256 -106.039)" gradientUnits="userSpaceOnUse" x1="304.125" x2="138.275" y1="498.679" y2="332.829"><stop offset="0" stop-color="#0056e0"/><stop offset=".2719" stop-color="#0080cd"/><stop offset=".769" stop-color="#00c9ad"/><stop offset="1" stop-color="#00e5a1"/></linearGradient><linearGradient id="lg2"><stop offset="0" stop-color="#85ffe0"/><stop offset=".1954" stop-color="#89ffe1"/><stop offset=".3746" stop-color="#94ffe4"/><stop offset=".5476" stop-color="#a6ffe8"/><stop offset=".7167" stop-color="#c1ffef"/><stop offset=".8814" stop-color="#e2fff8"/><stop offset="1" stop-color="#fff"/></linearGradient><linearGradient id="SVGID_11_" gradientTransform="matrix(.707 .707 -.707 .707 256 -106.039)" gradientUnits="userSpaceOnUse" x1="339.937" x2="236.292" xlink:href="#lg2" y1="450.356" y2="346.711"/><linearGradient id="SVGID_12_" gradientTransform="matrix(.707 .707 -.707 .707 256 -106.039)" gradientUnits="userSpaceOnUse" x1="386.658" x2="240.284" xlink:href="#lg2" y1="537.843" y2="391.468"/><g><circle cx="256" cy="256" fill="url(#SVGID_1_)" r="256"/><circle cx="256" cy="256" fill="url(#SVGID_2_)" r="256"/><path d="m444.175 124.394c6.817 8.792 5.653 22.792-2.023 30.671-16.3 16.702-32.635 33.369-49.004 50.003-24.358-6.576-50.324-11.755-76.921-16.425 26.556-38.592 53.047-76.956 79.216-114.515 18.045 14.955 34.289 31.71 48.732 50.266z" fill="url(#SVGID_3_)"/><path d="m387.601 67.831c2.651 2.063 5.265 4.161 7.842 6.297 19.228 15.853 17.931 45.75.097 63.739-23.834 23.959-47.685 47.9-71.553 71.824-4.574-31.583-9.615-62.555-16.556-91.324 16.467-16.204 32.968-32.375 49.502-48.512 7.879-7.676 21.876-8.839 30.668-2.024z" fill="url(#SVGID_4_)"/><path d="m393.148 205.068c-6.52 6.629-16.886 17.135-16.888 17.136-23.41-12.522-48.344-23.649-73.948-34.188 20.399-5.918 40.734-11.823 60.736-17.507 10.478 11.074 20.512 22.594 30.1 34.559z" fill="url(#SVGID_5_)"/><path d="m363.047 170.509c-20.237 20.317-40.488 40.621-60.75 60.913-3.449-32.767-7.094-65.244-12.498-95.679 5.708-5.634 11.42-11.263 17.136-16.888 19.942 15.98 38.646 33.198 56.112 51.654z" fill="url(#SVGID_6_)"/><path d="m376.259 222.204c-50.027 50.689-100.374 101.058-151.041 151.106-22.752-6.177-45.211-12.571-66.83-19.694 49.364-49.364 98.728-98.728 148.092-148.092 13.116-5.886 26.195-11.755 39.187-17.573 10.563 11.052 20.761 22.47 30.592 34.253z" fill="url(#SVGID_7_)"/><path d="m345.667 187.951c-62.293 62.493-124.704 124.87-187.231 187.129-7.594-28.213-13.779-58.077-19.743-88.295 50.049-50.667 100.418-101.015 151.107-151.042 19.638 16.386 38.261 33.789 55.867 52.208z" fill="url(#SVGID_8_)"/><path d="m147.514 364.489c-18.429 18.429-36.858 36.858-55.288 55.287 2.855 2.859 7.239 3.654 11.11 2.1 14.015-5.631 28.154-11.317 42.346-17.007.396-13.178 1.04-26.676 1.832-40.38z" fill="url(#SVGID_9_)"/><path d="m98.295 417.009c10.766-8.67 21.546-17.336 32.333-25.998 5.621-8.817 11.251-17.66 16.885-26.522-13.704.792-27.202 1.435-40.38 1.831-5.69 14.192-11.376 28.332-17.007 42.347-1.554 3.871-.76 8.254 2.099 11.109.715.714 3.097-.373 6.07-2.767z" fill="url(#SVGID_10_)"/><path d="m145.683 404.869c26.483-10.618 53.149-21.249 79.533-31.557-11.728-9.903-23.113-20.149-34.157-30.736-17.434 1.004-34.706 1.902-51.584 2.497-3.05 15.48-6.036 30.839-8.846 45.939 4.898 4.738 9.916 9.357 15.054 13.857z" fill="url(#SVGID_11_)"/><path d="m191.059 342.576c-18.406-17.646-35.863-36.243-52.369-55.79-10.308 26.385-20.939 53.051-31.556 79.534 7.499 8.563 15.331 16.793 23.495 24.691 20.129-16.163 40.286-32.311 60.43-48.435z" fill="url(#SVGID_12_)"/></g></svg>